<svg id="Layer_3" enableBackground="new 0 0 64 64" viewBox="0 0 64 64"><path d="m7 31h2v5h-2z" fill="#677b50"/><path d="m15 31h2v5h-2z" fill="#677b50"/><path d="m23 31h2v5h-2z" fill="#677b50"/><path d="m34 2h28v20h-28z" fill="#e3aa75"/>
<g fill="#ff8087"><path d="m38 16h4v6h-4z"/><path d="m46 16h4v6h-4z"/><path d="m54 16h4v6h-4z"/><path d="m54 6h4v6h-4z"/><path d="m46 6h4v6h-4z"/><path d="m38 6h4v6h-4z"/></g><path d="m2 2h28v18h-28z" fill="#c9c6ca"/><path d="m18 20v-8l2-2v-4h4v4l2 2v8" fill="#e3aa75"/><path d="m6 20v-8l2-2v-4h4v4l2 2v8" fill="#e3aa75"/><path d="m6 13h8v7h-8z" fill="#aa8058"/><path d="m18 13h8v7h-8z" fill="#aa8058"/><path d="m24 32c-1.105 0-2-.895-2-2v-4h4v4c0 1.105-.895 2-2 2z" fill="#cdf5a0"/><path d="m16 32c-1.105 0-2-.895-2-2v-4h4v4c0 1.105-.895 2-2 2z" fill="#cdf5a0"/><path d="m8 32c-1.105 0-2-.895-2-2v-4h4v4c0 1.105-.895 2-2 2z" fill="#cdf5a0"/><path d="m4 40h56v22h-56z" fill="#717072"/><path d="m4 40h53v22h-53z" fill="#979598"/><path d="m2 36h60v4h-60z" fill="#979598"/><path d="m2 36h57v4h-57z" fill="#c9c6ca"/><path d="m4 55h56v2h-56z" fill="#555456"/><path d="m34 11h28v2h-28z" fill="#aa8058"/></svg>
