<svg viewBox="0 0 93.902 169">
        <defs>
            <radialGradient
                id="radial-gradient"
                cx="0.5"
                cy="0.5"
                r="0.5"
                gradientUnits="objectBoundingBox">
                <stop offset="0" stopColor="#ff9200"/>
                <stop offset="1" stopColor="#ff8448"/>
            </radialGradient>
            <linearGradient
                id="linear-gradient"
                x1="1.186"
                y1="0.182"
                x2="-0.091"
                y2="0.859"
                gradientUnits="objectBoundingBox">
                <stop offset="0" stopColor="#fff1ae"/>
                <stop offset="1" stopColor="#ecd76d"/>
            </linearGradient>
        </defs>
        <g id="rum" transform="translate(-48.278 -64)">
            <path
                id="Path_34"
                data-name="Path 34"
                d="M30.3,12.3V-10.671H48.679V12.3S81.986,26.848,81.986,44.842,68.118,117,68.118,117s-14.165-7.051-28.331-7.051S11.457,117,11.457,117-1.857,60.156-3.006,44.842,30.3,12.3,30.3,12.3Z"
                transform="translate(55 116)"
                fill="url(#radial-gradient)"/>
            <path
                id="Path_33"
                data-name="Path 33"
                d="M32.091-.766H58.124V49.969S85.689,65.572,92,75.8s-14.733,82.878-14.733,82.878H13.714S-4.526,83.536,0,75.8,32.091,49.969,32.091,49.969Z"
                transform="translate(49 74.319)"
                fill="rgba(255,255,255,0.25)"/>
            <rect
                id="Rectangle_9"
                data-name="Rectangle 9"
                width="33"
                height="29"
                rx="5"
                transform="translate(78 64)"
                fill="url(#linear-gradient)"/>
            <rect
                id="Rectangle_10"
                data-name="Rectangle 10"
                width="42"
                height="16"
                transform="translate(74 174)"/>
            <path
                id="Icon_map-compass"
                data-name="Icon map-compass"
                d="M18,35.28A17.28,17.28,0,1,1,35.28,18,17.3,17.3,0,0,1,18,35.28ZM18,3.6A14.4,14.4,0,1,0,32.4,18,14.416,14.416,0,0,0,18,3.6Zm.032,2.34S12.96,14.631,12.96,17.28v1.44c0,2.648,5.088,11.52,5.088,11.52S23.04,21.552,23.04,18.9V17.276c0-2.649-5.008-11.336-5.008-11.336ZM18,20.88A2.88,2.88,0,1,1,20.88,18,2.88,2.88,0,0,1,18,20.88Z"
                transform="translate(77 150)"/>
            <path
                id="Path_35"
                data-name="Path 35"
                d="M0,0H12.926V15H0L6.726,7.585Z"
                transform="translate(63.074 179)"/>
            <path
                id="Path_36"
                data-name="Path 36"
                d="M0,0H13.9L7.334,7.919,13.9,15H0Z"
                transform="translate(113 179)"/>
            <text
                id="Rum-2"
                data-name="Rum"
                transform="translate(80 174)"
                fill="#fff"
                fontSize="15"
                fontFamily="Algerian">
                <tspan x="0" y="13">Rum</tspan>
            </text>
            <text
                id="Maroon"
                transform="translate(85 144)"
                fontSize="5"
                fontFamily="Algerian">
                <tspan x="0" y="4">Maroon</tspan>
            </text>
            <path
                id="Path_37"
                data-name="Path 37"
                d="M2047.131,1.528c24.456,23.812,18.664,20.916,18.664,20.916"
                transform="matrix(0.995, -0.105, 0.105, 0.995, -1925.992, 351.056)"
                fill="none"
                stroke="#fff"
                strokeLinecap="round"
                strokeWidth="3"/>
        </g>
    </svg>
